<?xml version="1.0" encoding="UTF-8"?>
<!DOCTYPE svg PUBLIC "-//W3C//DTD SVG 1.1//EN" "http://www.w3.org/Graphics/SVG/1.1/DTD/svg11.dtd">
<svg version="1.1" xmlns="http://www.w3.org/2000/svg" xmlns:xlink="http://www.w3.org/1999/xlink" x="0" y="0" width="247.886" height="240" viewBox="0, 0, 247.886, 240">
  <defs>
    <clipPath id="Clip_1">
      <path d="M212.885,202 L248.885,202 L248.885,242 L212.885,242 z M230.885,210 C224.258,210 218.886,215.373 218.885,222 C218.886,228.627 224.258,234 230.885,234 C237.513,234 242.886,228.627 242.885,222 C242.886,215.373 237.513,210 230.885,210 z"/>
    </clipPath>
    <filter id="Shadow_2">
      <feGaussianBlur in="SourceAlpha" stdDeviation="2.5"/>
      <feOffset dx="0" dy="2" result="offsetblur"/>
      <feFlood flood-color="#000000"/>
      <feComposite in2="offsetblur" operator="in"/>
    </filter>
    <clipPath id="Clip_3">
      <path d="M176.885,142 L236.885,142 L236.885,206 L176.885,206 z M206.885,150 C193.631,150 182.886,160.745 182.885,174 C182.886,187.255 193.631,198 206.885,198 C220.14,198 230.886,187.255 230.885,174 C230.886,160.745 220.14,150 206.885,150 z"/>
    </clipPath>
    <filter id="Shadow_4">
      <feGaussianBlur in="SourceAlpha" stdDeviation="2.5"/>
      <feOffset dx="0" dy="2" result="offsetblur"/>
      <feFlood flood-color="#000000"/>
      <feComposite in2="offsetblur" operator="in"/>
    </filter>
    <clipPath id="Clip_5">
      <path d="M-3.115,-2 L188.885,-2 L188.885,194 L-3.115,194 z M92.885,6 C43.18,6 2.886,46.294 2.885,96 C2.886,145.706 43.18,186 92.885,186 C142.591,186 182.886,145.706 182.885,96 C182.886,46.294 142.591,6 92.885,6 z"/>
    </clipPath>
    <filter id="Shadow_6">
      <feGaussianBlur in="SourceAlpha" stdDeviation="2.5"/>
      <feOffset dx="0" dy="2" result="offsetblur"/>
      <feFlood flood-color="#000000"/>
      <feComposite in2="offsetblur" operator="in"/>
    </filter>
  </defs>
  <g id="Layer_1">
    <g>
      <path d="M230.885,210 C237.513,210 242.886,215.373 242.885,222 C242.886,228.627 237.513,234 230.885,234 C224.258,234 218.886,228.627 218.885,222 C218.886,215.373 224.258,210 230.885,210 z" clip-path="url(#Clip_1)" filter="url(#Shadow_2)" fill="rgba(0,0,0,0.75)"/>
      <path d="M230.886,234 C237.513,234 242.886,228.627 242.886,222 C242.886,215.373 237.513,210 230.886,210 C224.258,210 218.886,215.373 218.886,222 C218.886,228.627 224.258,234 230.886,234 z" fill="#FFFFFF"/>
    </g>
    <g>
      <path d="M206.885,150 C220.14,150 230.886,160.745 230.885,174 C230.886,187.255 220.14,198 206.885,198 C193.631,198 182.886,187.255 182.885,174 C182.886,160.745 193.631,150 206.885,150 z" clip-path="url(#Clip_3)" filter="url(#Shadow_4)" fill="rgba(0,0,0,0.75)"/>
      <path d="M206.886,198 C220.14,198 230.886,187.255 230.886,174 C230.886,160.745 220.14,150 206.886,150 C193.631,150 182.886,160.745 182.886,174 C182.886,187.255 193.631,198 206.886,198 z" fill="#FFFFFF"/>
    </g>
    <g>
      <path d="M92.885,6 C142.591,6 182.886,46.294 182.885,96 C182.886,145.706 142.591,186 92.885,186 C43.18,186 2.886,145.706 2.885,96 C2.886,46.294 43.18,6 92.885,6 z" clip-path="url(#Clip_5)" filter="url(#Shadow_6)" fill="rgba(0,0,0,0.75)"/>
      <path d="M92.886,186 C142.591,186 182.886,145.706 182.886,96 C182.886,46.294 142.591,6 92.886,6 C43.18,6 2.886,46.294 2.886,96 C2.886,145.706 43.18,186 92.886,186 z" fill="#FFFFFF"/>
    </g>
    <text transform="matrix(1, 0, 0, 1, 92.886, 96)">
      <tspan x="-38.271" y="16" font-family="Noteworthy-Bold" font-size="34" fill="#5C4BA7">sad...</tspan>
    </text>
  </g>
</svg>
