<?xml version="1.0" encoding="UTF-8"?>
<!DOCTYPE svg PUBLIC "-//W3C//DTD SVG 1.1//EN" "http://www.w3.org/Graphics/SVG/1.1/DTD/svg11.dtd">
<svg version="1.1" xmlns="http://www.w3.org/2000/svg" xmlns:xlink="http://www.w3.org/1999/xlink" x="0" y="0" width="247.886" height="240" viewBox="0, 0, 247.886, 240">
  <defs>
    <clipPath id="Clip_1">
      <path d="M-1,202 L35,202 L35,242 L-1,242 z M17,210 C10.373,210 5,215.373 5,222 C5,228.627 10.373,234 17,234 C23.627,234 29,228.627 29,222 C29,215.373 23.627,210 17,210 z"/>
    </clipPath>
    <filter id="Shadow_2">
      <feGaussianBlur in="SourceAlpha" stdDeviation="2.5"/>
      <feOffset dx="0" dy="2" result="offsetblur"/>
      <feFlood flood-color="#000000"/>
      <feComposite in2="offsetblur" operator="in"/>
    </filter>
    <clipPath id="Clip_3">
      <path d="M11,142 L71,142 L71,206 L11,206 z M41,150 C27.745,150 17,160.745 17,174 C17,187.255 27.745,198 41,198 C54.255,198 65,187.255 65,174 C65,160.745 54.255,150 41,150 z"/>
    </clipPath>
    <filter id="Shadow_4">
      <feGaussianBlur in="SourceAlpha" stdDeviation="2.5"/>
      <feOffset dx="0" dy="2" result="offsetblur"/>
      <feFlood flood-color="#000000"/>
      <feComposite in2="offsetblur" operator="in"/>
    </filter>
    <clipPath id="Clip_5">
      <path d="M56.886,-2 L248.886,-2 L248.886,194 L56.886,194 z M152.886,6 C103.18,6 62.886,46.294 62.886,96 C62.886,145.706 103.18,186 152.886,186 C202.591,186 242.886,145.706 242.886,96 C242.886,46.294 202.591,6 152.885,6 z"/>
    </clipPath>
    <filter id="Shadow_6">
      <feGaussianBlur in="SourceAlpha" stdDeviation="2.5"/>
      <feOffset dx="0" dy="2" result="offsetblur"/>
      <feFlood flood-color="#000000"/>
      <feComposite in2="offsetblur" operator="in"/>
    </filter>
  </defs>
  <g id="Layer_1">
    <g>
      <path d="M17,210 C23.627,210 29,215.373 29,222 C29,228.627 23.627,234 17,234 C10.373,234 5,228.627 5,222 C5,215.373 10.373,210 17,210 z" clip-path="url(#Clip_1)" filter="url(#Shadow_2)" fill="rgba(0,0,0,0.75)"/>
      <path d="M17,234 C10.373,234 5,228.627 5,222 C5,215.373 10.373,210 17,210 C23.627,210 29,215.373 29,222 C29,228.627 23.627,234 17,234 z" fill="#FFFFFF"/>
    </g>
    <g>
      <path d="M41,150 C54.255,150 65,160.745 65,174 C65,187.255 54.255,198 41,198 C27.745,198 17,187.255 17,174 C17,160.745 27.745,150 41,150 z" clip-path="url(#Clip_3)" filter="url(#Shadow_4)" fill="rgba(0,0,0,0.75)"/>
      <path d="M41,198 C27.745,198 17,187.255 17,174 C17,160.745 27.745,150 41,150 C54.255,150 65,160.745 65,174 C65,187.255 54.255,198 41,198 z" fill="#FFFFFF"/>
    </g>
    <g>
      <path d="M152.885,6 C202.591,6 242.886,46.294 242.886,96 C242.886,145.706 202.591,186 152.886,186 C103.18,186 62.886,145.706 62.886,96 C62.886,46.294 103.18,6 152.886,6 z" clip-path="url(#Clip_5)" filter="url(#Shadow_6)" fill="rgba(0,0,0,0.75)"/>
      <path d="M152.886,186 C103.18,186 62.886,145.706 62.886,96 C62.886,46.294 103.18,6 152.886,6 C202.591,6 242.886,46.294 242.886,96 C242.886,145.706 202.591,186 152.886,186 z" fill="#FFFFFF"/>
    </g>
    <text transform="matrix(1, 0, 0, 1, 152.886, 96)">
      <tspan x="-50.201" y="7.5" font-family="MarkerFelt-Wide" font-size="34" fill="#50A9D3">WHO!?</tspan>
    </text>
  </g>
</svg>
